<svg id="svg" xmlns="http://www.w3.org/2000/svg" xmlns:xlink="http://www.w3.org/1999/xlink" width="400" height="400" viewBox="0, 0, 400,400" version="1.1"><g id="svgg"><path id="path0" d="M185.600 0.254 C 168.121 1.778,153.012 4.766,138.000 9.667 C 43.739 40.443,-13.791 135.460,2.620 233.265 C 20.881 342.104,124.268 415.669,233.265 397.380 C 342.104 379.119,415.669 275.732,397.380 166.735 C 382.562 78.419,312.487 12.185,222.000 0.969 C 216.860 0.332,190.620 -0.184,185.600 0.254 M130.386 134.374 C 130.658 134.883,130.800 143.439,130.800 159.374 L 130.800 183.600 147.600 183.600 L 164.400 183.600 164.400 159.080 C 164.400 140.542,164.517 134.443,164.880 134.080 C 165.237 133.723,169.324 133.600,180.800 133.600 C 192.276 133.600,196.363 133.723,196.720 134.080 C 197.418 134.778,197.418 265.222,196.720 265.920 C 196.363 266.277,192.276 266.400,180.800 266.400 C 169.324 266.400,165.237 266.277,164.880 265.920 C 164.517 265.557,164.400 259.458,164.400 240.920 L 164.400 216.400 147.600 216.400 L 130.800 216.400 130.800 240.626 C 130.800 256.561,130.658 265.117,130.386 265.626 C 129.987 266.371,129.384 266.400,114.200 266.400 C 99.016 266.400,98.413 266.371,98.014 265.626 C 97.436 264.547,97.436 135.453,98.014 134.374 C 98.661 133.166,129.739 133.166,130.386 134.374 M313.520 134.080 C 314.218 134.778,314.218 265.222,313.520 265.920 C 312.823 266.617,215.577 266.617,214.880 265.920 C 214.182 265.222,214.182 134.778,214.880 134.080 C 215.577 133.383,312.823 133.383,313.520 134.080 " stroke="none" fill="#000000" fill-rule="evenodd"></path></g></svg>