<?xml version="1.0" standalone="no"?>
<!DOCTYPE svg PUBLIC "-//W3C//DTD SVG 20010904//EN"
 "http://www.w3.org/TR/2001/REC-SVG-20010904/DTD/svg10.dtd">
<svg version="1.0" xmlns="http://www.w3.org/2000/svg"
 width="260.000000pt" height="260.000000pt" viewBox="0 0 260.000000 260.000000"
 preserveAspectRatio="xMidYMid meet">
<metadata>
Created by potrace 1.14, written by Peter Selinger 2001-2017
</metadata>
<g transform="translate(0.000000,260.000000) scale(0.100000,-0.100000)"
fill="#000000" stroke="none">
<path d="M303 2552 l-1 -42 99 0 c54 0 100 -3 100 -7 1 -5 3 -377 3 -828 l2
-820 49 0 50 0 1 815 c1 448 2 820 3 827 1 9 162 11 693 10 l693 -2 0 -825 0
-825 49 -3 48 -3 -4 40 c-2 23 -1 41 2 41 3 0 3 27 0 60 -3 33 -3 60 0 60 3 0
3 117 0 260 -3 143 -2 260 1 260 3 0 3 20 -1 45 -4 27 -3 45 3 45 5 0 4 7 -3
15 -7 8 -9 15 -4 15 5 0 7 115 4 260 -3 143 -3 260 0 260 3 0 3 27 0 60 -3 33
-3 60 0 60 3 0 5 39 5 87 l0 88 101 3 102 3 -2 29 c-1 16 -5 32 -9 36 -10 11
-117 12 -117 2 0 -5 -6 -6 -12 -1 -18 10 -108 11 -108 0 0 -4 -6 -5 -12 0 -18
10 -108 11 -108 0 0 -4 -6 -5 -12 0 -17 10 -228 10 -228 0 0 -5 -6 -5 -12 0
-18 10 -108 11 -108 0 0 -4 -6 -5 -12 0 -18 10 -108 11 -108 0 0 -4 -6 -5 -12
0 -18 10 -108 11 -108 0 0 -4 -6 -5 -12 0 -18 10 -108 11 -108 0 0 -4 -6 -5
-12 0 -18 10 -108 11 -108 0 0 -4 -6 -5 -12 0 -18 10 -108 11 -108 0 0 -4 -6
-5 -12 0 -15 9 -108 11 -108 3 0 -4 -7 -7 -15 -7 -8 0 -12 3 -10 6 2 4 -19 6
-46 6 -27 0 -49 -4 -49 -8 0 -5 -6 -5 -12 0 -18 10 -108 11 -108 0 0 -4 -6 -5
-12 0 -18 10 -108 11 -108 0 0 -4 -6 -5 -12 0 -18 11 -108 11 -108 0 0 -5 -7
-4 -15 3 -11 10 -18 10 -29 1 -11 -9 -15 -9 -18 0 -2 7 -4 -7 -5 -29z"/>
<path d="M15 2500 c-1 -3 -3 -190 -3 -416 0 -227 -3 -417 -6 -423 -4 -6 -4
-11 1 -11 4 0 7 -366 7 -813 l-2 -813 47 1 46 1 1 105 c0 58 4 111 9 118 5 8
4 12 -1 8 -11 -6 -10 214 1 233 5 7 4 11 -1 7 -11 -6 -10 215 1 233 5 8 4 11
-1 7 -8 -5 -11 104 -4 123 1 3 1 10 0 15 -7 29 -6 72 3 89 5 10 5 16 0 13 -10
-7 -9 215 2 233 5 7 4 11 -1 7 -11 -6 -10 214 1 233 5 7 4 11 -1 7 -10 -6 -11
203 -1 220 4 5 3 13 0 17 -10 10 -10 208 0 230 5 10 5 16 0 13 -10 -7 -9 215
2 233 5 7 4 11 -1 7 -11 -6 -10 214 1 233 5 8 4 11 -2 7 -7 -4 -9 10 -8 38 2
25 0 45 -4 46 -22 4 -83 3 -86 -1z"/>
<path d="M2509 2503 c-14 -4 -16 -119 -15 -1240 l1 -1236 33 -3 c24 -3 31 -1
26 9 -5 9 -4 9 7 0 20 -19 28 -16 24 12 -1 14 2 28 7 31 5 3 4 11 -2 19 -8 10
-8 15 0 20 8 5 8 10 0 20 -8 10 -8 15 0 20 8 5 8 10 0 20 -8 10 -8 15 0 20 8
5 8 10 0 20 -8 10 -8 15 0 20 8 5 8 10 0 20 -8 10 -8 15 0 20 8 5 8 10 0 20
-8 10 -8 15 0 20 8 5 8 10 0 20 -8 10 -8 15 0 20 8 5 8 10 0 20 -8 10 -8 15 0
20 8 5 8 10 0 20 -8 10 -8 15 0 20 8 5 8 10 0 20 -8 10 -8 15 0 20 8 5 8 10 0
20 -8 10 -8 15 0 20 8 5 8 10 0 20 -8 10 -8 15 0 20 8 5 8 10 0 20 -8 10 -8
15 0 20 8 5 8 10 0 20 -8 10 -8 15 0 20 8 5 8 10 0 20 -8 10 -8 15 0 20 8 5 8
10 0 20 -8 10 -8 15 0 20 8 5 8 10 0 20 -8 10 -8 15 0 20 8 5 8 10 0 20 -8 10
-8 15 0 20 8 5 8 10 0 20 -8 9 -8 15 0 20 6 3 7 12 3 18 -12 20 -12 37 0 37 8
0 7 3 -2 9 -9 6 -10 10 -2 16 9 5 9 10 1 20 -8 10 -8 15 0 20 8 5 8 10 0 20
-8 10 -8 15 0 20 8 5 8 10 0 20 -8 10 -8 15 0 20 8 5 8 10 0 20 -8 10 -8 15 0
20 8 5 8 10 0 20 -8 10 -8 15 0 20 8 5 8 10 0 20 -8 10 -8 15 0 20 8 5 8 10 0
20 -8 10 -8 15 0 20 8 5 8 10 0 20 -8 10 -8 15 0 20 8 5 8 10 0 20 -8 10 -8
15 0 20 8 5 8 10 0 20 -8 10 -8 15 0 20 8 5 8 10 0 20 -8 10 -8 15 0 20 8 5 8
10 0 20 -8 10 -8 15 0 20 8 5 8 10 0 20 -8 10 -8 15 0 20 8 5 8 10 0 20 -8 10
-8 15 0 20 8 5 8 10 0 20 -8 10 -8 15 0 20 8 5 8 10 0 20 -8 10 -8 15 0 20 8
5 8 10 0 20 -8 10 -8 15 0 20 8 5 8 10 0 20 -8 10 -8 15 0 20 8 5 8 11 -1 21
-9 11 -9 14 0 14 8 0 9 6 2 18 -14 26 -14 34 1 43 11 7 11 9 -1 9 -10 0 -11 3
-2 14 9 10 9 16 1 21 -8 5 -8 10 0 20 8 10 8 15 0 20 -8 5 -8 10 0 20 8 10 8
15 0 20 -8 5 -8 10 0 20 8 10 8 15 0 20 -8 5 -8 10 0 20 8 10 8 15 0 20 -8 5
-8 10 0 20 8 10 8 15 0 20 -8 5 -8 10 0 20 8 10 8 15 0 20 -8 5 -8 10 0 20 8
10 8 15 0 20 -8 5 -8 10 0 20 8 10 8 15 0 20 -8 5 -8 10 0 20 8 10 8 15 0 20
-8 5 -8 10 0 20 8 10 8 15 0 20 -8 5 -8 10 0 20 8 10 8 15 0 20 -8 5 -8 10 0
20 8 10 8 15 0 20 -8 5 -8 10 0 20 8 10 8 15 0 20 -8 5 -8 10 0 20 8 10 8 15
0 20 -8 5 -8 10 0 20 8 10 8 15 0 20 -8 5 -8 10 0 20 8 10 8 15 0 20 -8 5 -8
10 0 20 8 10 8 15 0 20 -8 5 -8 10 0 20 8 10 8 15 -1 20 -13 9 -57 13 -80 8z"/>
<path d="M876 2482 c-19 -4 -18 25 -18 -322 l-1 -285 99 0 c54 0 104 2 109 4
6 3 15 6 22 7 87 14 150 79 169 177 10 47 11 218 2 223 -5 3 -8 15 -8 28 0 37
-54 111 -96 131 -22 11 -41 19 -44 20 -3 0 -9 3 -15 6 -15 9 -187 17 -219 11z
m209 -130 c21 -15 27 -25 42 -72 11 -35 9 -181 -3 -216 -18 -53 -42 -73 -98
-80 l-49 -7 7 26 c3 15 3 27 -2 27 -10 0 -9 30 0 46 4 5 3 16 -2 24 -5 9 -4
20 2 28 7 8 8 16 2 20 -10 8 -12 32 -2 47 4 6 3 17 -2 25 -5 9 -4 20 2 28 9
10 8 16 -3 23 -12 7 -12 9 1 9 12 0 12 2 1 9 -8 5 -9 11 -3 15 6 3 9 18 6 32
-3 14 -2 29 1 34 8 13 74 2 100 -18z"/>
<path d="M810 932 c-6 -2 -10 -19 -10 -38 0 -27 4 -34 20 -34 11 -1 216 -1
455 -1 239 0 456 0 481 1 l45 0 -3 37 c-2 20 -9 39 -17 41 -9 3 -11 0 -6 -8 6
-9 4 -11 -5 -5 -12 8 -938 14 -960 7z"/>
<path d="M636 768 c-16 -35 -44 -96 -62 -135 -19 -40 -34 -76 -35 -80 0 -5 -8
-16 -17 -27 -9 -10 -16 -20 -15 -22 2 -2 -9 -30 -23 -61 -15 -32 -27 -64 -27
-70 0 -7 -3 -13 -6 -13 -3 0 -12 -15 -20 -32 -19 -43 -73 -161 -77 -169 -2 -3
17 -5 42 -5 37 1 48 6 60 26 14 25 77 160 79 170 0 3 12 28 27 57 14 28 24 54
21 57 -4 3 -1 6 5 6 7 0 12 9 12 20 0 11 3 20 8 20 6 0 46 86 47 102 0 3 4 10
8 15 10 9 34 65 33 73 -1 3 7 18 17 33 9 15 14 27 10 27 -5 0 -3 4 2 8 6 4 16
19 22 35 l13 27 -48 0 -48 0 -28 -62z"/>
<path d="M1847 813 c3 -10 9 -22 12 -28 3 -5 6 -12 6 -15 1 -3 15 -33 32 -67
17 -35 28 -63 25 -63 -4 0 -2 -4 4 -8 6 -4 21 -33 34 -64 13 -32 27 -58 30
-58 4 0 7 -6 7 -12 0 -7 13 -40 29 -73 15 -33 27 -63 26 -67 -1 -5 2 -8 8 -8
5 0 10 -4 10 -10 0 -5 11 -34 25 -65 13 -30 23 -57 22 -58 -1 -1 8 -16 20 -32
18 -25 28 -30 66 -30 44 -1 45 -1 34 24 -6 15 -18 36 -25 48 -8 13 -10 23 -6
23 5 0 5 4 -1 8 -13 9 -71 133 -67 144 1 4 -2 8 -7 8 -5 0 -12 14 -16 30 -4
17 -11 30 -16 30 -5 0 -9 5 -9 11 0 6 -17 45 -37 87 -20 42 -37 82 -37 87 -1
6 -3 12 -6 15 -5 5 -33 60 -35 70 0 3 -9 24 -20 48 -18 41 -20 42 -67 42 -41
0 -47 -2 -41 -17z"/>
<path d="M830 111 c0 -6 -6 -10 -12 -8 -9 1 -13 -10 -13 -33 l0 -35 498 0 498
0 -3 35 c-3 32 -6 35 -35 35 -18 0 -33 3 -33 8 0 4 -9 3 -19 -3 -14 -7 -22 -7
-27 1 -4 8 -9 7 -15 -2 -7 -11 -9 -11 -9 1 0 13 -2 13 -9 1 -8 -12 -12 -12
-25 -2 -13 11 -16 11 -16 0 0 -12 -2 -12 -9 0 -7 11 -10 11 -15 0 -5 -11 -7
-11 -12 -1 -3 6 -11 9 -17 5 -15 -9 -67 -10 -67 0 0 4 -9 3 -19 -3 -14 -7 -22
-7 -27 1 -4 8 -9 7 -15 -2 -7 -11 -9 -11 -9 1 0 13 -2 13 -9 1 -8 -12 -12 -12
-25 -2 -11 9 -16 10 -16 2 0 -6 -5 -11 -11 -11 -5 0 -7 6 -3 12 5 9 2 9 -9 -1
-12 -9 -17 -10 -17 -2 0 7 -5 9 -12 5 -16 -10 -68 -11 -68 -1 0 4 -9 3 -19 -3
-14 -7 -22 -7 -27 1 -4 8 -9 7 -15 -2 -7 -11 -9 -11 -9 1 0 13 -2 13 -9 1 -8
-12 -12 -12 -25 -2 -13 11 -16 11 -16 0 0 -12 -2 -12 -9 0 -7 11 -10 11 -15 0
-5 -11 -7 -11 -12 -1 -3 6 -11 9 -17 5 -15 -9 -67 -10 -67 0 0 4 -9 3 -19 -3
-14 -7 -22 -7 -27 1 -4 8 -9 7 -15 -2 -7 -11 -9 -11 -9 1 0 13 -2 13 -9 1 -8
-12 -12 -12 -25 -2 -13 11 -16 11 -16 0 0 -12 -2 -12 -9 0 -7 11 -9 11 -13 0
-4 -12 -7 -12 -21 0 -11 9 -17 10 -17 2z"/>
</g>
</svg>
