<?xml version="1.0" standalone="no"?>
<!DOCTYPE svg PUBLIC "-//W3C//DTD SVG 20010904//EN"
 "http://www.w3.org/TR/2001/REC-SVG-20010904/DTD/svg10.dtd">
<svg version="1.0" xmlns="http://www.w3.org/2000/svg"
 width="515.000000pt" height="515.000000pt" viewBox="0 0 515.000000 515.000000"
 preserveAspectRatio="xMidYMid meet">
<metadata>
Created by potrace 1.14, written by Peter Selinger 2001-2017
</metadata>
<g transform="translate(0.000000,515.000000) scale(0.100000,-0.100000)"
fill="#000000" stroke="none">
<path d="M1975 5144 c-192 -20 -419 -69 -552 -120 -37 -14 -72 -27 -78 -28 -5
-1 -41 -17 -79 -34 -38 -18 -70 -32 -71 -32 -2 0 -31 -16 -64 -34 -34 -19 -61
-33 -61 -31 0 3 -9 -3 -20 -13 -12 -9 -24 -17 -28 -17 -7 0 -28 -14 -108 -72
-24 -18 -44 -30 -44 -26 0 3 -8 -4 -19 -15 -10 -12 -21 -22 -25 -22 -3 0 -14
-8 -24 -17 -10 -10 -43 -38 -73 -63 -87 -73 -258 -252 -283 -298 -5 -10 -13
-19 -17 -22 -8 -6 -124 -181 -153 -231 -11 -19 -42 -80 -68 -137 -132 -278
-201 -565 -202 -847 -1 -138 -1 -141 31 -206 18 -36 50 -82 72 -102 42 -39
111 -82 111 -69 0 4 4 2 8 -5 15 -24 150 -32 312 -19 91 7 195 21 195 26 0 1
14 3 30 5 17 1 30 3 30 5 0 1 9 3 20 5 40 7 75 16 102 26 16 6 29 10 31 10 1
-1 3 -1 5 0 1 0 15 3 32 5 16 3 32 10 36 16 3 5 8 9 10 8 10 -5 96 23 110 36
9 8 18 12 21 9 7 -7 141 53 150 68 4 7 8 8 8 4 0 -12 117 54 230 129 77 51
161 116 265 202 18 16 185 194 185 198 0 4 36 48 63 76 9 10 17 22 17 26 0 5
11 19 25 32 14 13 25 29 25 37 0 7 3 13 8 13 4 0 16 17 27 38 11 20 22 39 25
42 21 21 111 200 155 310 79 196 126 394 146 610 21 230 -2 328 -101 424 -79
76 -139 99 -270 102 -58 1 -123 0 -145 -2z"/>
<path d="M2943 5140 c-149 -31 -255 -139 -283 -290 -7 -38 -7 -98 0 -195 16
-216 64 -433 137 -619 34 -87 130 -285 142 -296 4 -3 13 -18 21 -34 29 -56 35
-66 42 -66 5 0 8 -7 8 -15 0 -8 5 -15 10 -15 6 0 10 -7 10 -15 0 -9 7 -18 15
-21 8 -4 15 -12 15 -19 0 -7 4 -15 8 -17 4 -1 21 -21 37 -43 107 -142 329
-347 500 -460 68 -46 360 -204 360 -196 0 1 14 -3 30 -9 17 -7 35 -13 40 -14
6 -1 20 -8 33 -14 12 -7 22 -10 22 -6 0 3 6 2 13 -4 7 -6 24 -13 37 -16 14 -3
43 -10 65 -16 22 -6 49 -13 60 -15 11 -2 20 -4 20 -5 0 -4 91 -22 123 -23 12
-1 22 -4 22 -8 0 -4 8 -8 18 -8 9 0 42 -3 72 -6 30 -4 87 -8 125 -9 39 -1 75
-4 80 -7 13 -8 92 -5 100 3 4 4 18 4 31 2 13 -2 24 0 24 6 0 5 3 9 8 8 16 -4
72 14 72 23 0 6 4 8 9 4 16 -9 120 101 142 149 35 79 41 144 29 299 -23 289
-81 508 -204 762 -68 142 -140 262 -213 358 -68 90 -77 99 -199 221 -126 125
-171 166 -182 166 -4 0 -14 9 -22 20 -8 11 -18 20 -22 20 -4 0 -36 21 -70 46
-35 25 -73 50 -85 55 -13 5 -23 14 -23 20 0 7 -3 9 -6 6 -4 -4 -19 2 -33 12
-14 10 -36 22 -48 25 -13 4 -23 12 -23 17 0 5 -3 8 -7 7 -5 -2 -33 9 -63 24
-53 26 -150 70 -160 73 -3 1 -48 15 -100 32 -238 78 -610 129 -737 103z"/>
<path d="M334 2471 c-2 -3 -21 -6 -41 -8 -19 -1 -41 -7 -48 -13 -6 -5 -14 -7
-17 -4 -17 16 -168 -111 -168 -141 0 -8 -4 -15 -9 -15 -5 0 -17 -24 -27 -52
-14 -41 -18 -80 -16 -172 2 -160 15 -256 58 -446 63 -274 254 -651 429 -850
40 -45 253 -254 285 -280 17 -14 37 -31 45 -38 7 -6 18 -12 24 -12 5 0 14 -6
18 -13 4 -8 23 -22 41 -32 17 -11 32 -23 32 -27 0 -4 6 -8 14 -8 8 0 17 -7 20
-16 3 -8 10 -13 16 -9 5 3 18 -2 28 -12 10 -10 25 -19 33 -21 7 -2 16 -7 19
-10 3 -4 49 -29 102 -55 277 -136 532 -205 834 -227 210 -15 294 8 391 106 77
79 97 139 95 287 -2 223 -58 505 -140 713 -45 114 -161 344 -174 344 -4 0 -8
5 -8 11 0 10 -53 92 -75 115 -5 6 -17 22 -25 34 -15 22 -30 40 -73 92 -49 59
-236 240 -302 293 -38 31 -106 80 -151 110 -85 58 -316 181 -349 187 -11 1
-23 7 -26 11 -3 5 -12 10 -20 12 -8 1 -23 6 -34 9 -11 4 -24 6 -29 6 -5 -1
-12 3 -15 9 -4 6 -18 13 -31 15 -14 2 -25 5 -25 6 0 1 -17 6 -47 13 -7 1 -17
5 -23 8 -5 4 -28 10 -50 14 -22 5 -47 10 -55 12 -8 2 -26 5 -40 8 -14 2 -25 5
-25 6 0 1 -13 3 -30 4 -16 2 -30 4 -30 5 0 6 -123 20 -220 24 -44 2 -82 5 -85
7 -9 5 -71 5 -76 0z"/>
<path d="M4732 2471 c-5 -3 -42 -6 -81 -5 -39 0 -71 -2 -71 -5 0 -3 -19 -7
-43 -8 -53 -3 -111 -9 -114 -13 -2 -1 -12 -4 -23 -5 -11 -1 -21 -4 -22 -5 -2
-1 -14 -3 -28 -5 -14 -1 -45 -8 -70 -15 -25 -8 -48 -13 -52 -12 -4 1 -20 -3
-35 -10 -15 -6 -39 -13 -53 -15 -13 -2 -27 -7 -30 -11 -3 -4 -14 -9 -25 -10
-11 -2 -22 -7 -25 -10 -3 -4 -16 -9 -30 -10 -14 -2 -36 -10 -50 -17 -14 -6
-81 -40 -150 -73 -195 -96 -364 -215 -515 -361 -87 -85 -174 -178 -200 -215
-20 -27 -32 -43 -67 -85 -10 -12 -18 -26 -18 -31 0 -6 -4 -10 -9 -10 -5 0 -14
-14 -21 -31 -7 -17 -19 -36 -26 -43 -23 -24 -133 -240 -174 -345 -84 -213
-139 -489 -142 -712 -1 -108 1 -132 21 -183 32 -80 117 -165 197 -197 170 -66
694 17 994 158 30 14 78 36 105 49 102 47 288 163 312 194 7 8 13 12 13 8 0
-5 8 0 19 10 10 9 33 28 51 42 36 27 252 240 285 280 139 172 250 356 329 550
15 36 31 74 36 85 14 33 47 145 69 237 52 215 70 501 38 594 -10 28 -26 60
-37 72 -11 12 -20 25 -20 29 0 25 -121 109 -167 117 -15 2 -28 5 -28 6 0 3
-41 9 -91 14 -22 2 -46 1 -52 -3z"/>
</g>
</svg>
