<svg id="svg" xmlns="http://www.w3.org/2000/svg" xmlns:xlink="http://www.w3.org/1999/xlink" width="400" height="400" viewBox="0, 0, 400,400"><g id="svgg"><path id="path0" d="M169.921 1.636 C 46.055 21.784,-29.304 145.452,10.113 263.889 C 48.164 378.223,179.953 433.173,288.447 379.942 C 378.333 335.841,421.681 231.645,389.887 136.111 C 367.303 68.251,311.229 18.743,239.444 3.285 C 224.991 0.172,184.780 -0.782,169.921 1.636 M295.886 49.279 C 309.751 55.072,311.018 67.126,299.575 84.353 C 284.825 106.558,276.625 127.405,273.315 151.110 C 271.400 164.830,265.316 171.111,253.944 171.111 C 237.153 171.111,232.320 157.068,239.286 128.522 C 248.280 91.663,223.112 78.826,192.234 104.523 C 134.006 152.981,116.111 281.503,165.260 298.250 C 198.144 309.455,248.148 285.704,281.394 243.089 C 291.410 230.249,300.468 227.823,309.331 235.605 C 321.140 245.974,315.289 260.497,285.761 294.105 C 240.725 345.366,158.603 360.480,120.751 324.475 C 61.627 268.236,99.291 104.191,180.591 63.842 C 203.465 52.491,225.478 51.825,252.979 61.655 C 265.813 66.242,266.208 66.170,272.237 58.184 C 279.186 48.981,287.595 45.815,295.886 49.279 " stroke="none" fill="#000000" fill-rule="evenodd"></path></g></svg>