<svg id="svg" xmlns="http://www.w3.org/2000/svg" xmlns:xlink="http://www.w3.org/1999/xlink" width="400" height="400" viewBox="0, 0, 400,400"><g id="svgg"><path id="path0" d="M180.469 0.485 C 56.761 15.198,-23.391 128.841,5.590 248.438 C 35.312 371.093,174.194 435.834,287.891 380.035 C 372.795 338.367,416.803 243.974,394.410 151.563 C 377.230 80.666,319.655 23.079,248.438 5.559 C 230.449 1.133,196.394 -1.409,180.469 0.485 M218.441 75.813 C 257.345 78.955,292.408 98.259,313.884 128.360 L 316.440 131.943 310.759 135.263 C 307.634 137.090,295.780 143.977,284.416 150.569 L 263.753 162.553 261.823 159.988 C 224.621 110.549,142.754 137.771,142.663 199.609 C 142.570 262.055,224.845 289.180,262.083 238.981 L 265.330 234.604 290.673 249.712 C 304.611 258.022,316.365 264.942,316.793 265.091 C 318.761 265.777,306.883 280.644,296.722 290.212 C 240.092 343.542,146.035 333.203,103.053 268.924 C 49.908 189.448,101.930 83.774,198.097 75.858 C 202.366 75.506,206.424 75.169,207.113 75.109 C 207.803 75.049,212.900 75.366,218.441 75.813 " stroke="none" fill="#000000" fill-rule="evenodd"></path></g></svg>