<?xml version="1.0" standalone="no"?>
<!DOCTYPE svg PUBLIC "-//W3C//DTD SVG 20010904//EN"
 "http://www.w3.org/TR/2001/REC-SVG-20010904/DTD/svg10.dtd">
<svg version="1.0" xmlns="http://www.w3.org/2000/svg"
 width="660.000000pt" height="660.000000pt" viewBox="0 0 660.000000 660.000000"
 preserveAspectRatio="xMidYMid meet">

<g transform="translate(0.000000,660.000000) scale(0.100000,-0.100000)"
fill="#000000" stroke="none">
<path d="M3060 6594 c-409 -36 -747 -121 -1095 -273 -980 -430 -1698 -1326
-1904 -2376 -44 -228 -55 -350 -55 -635 -1 -326 18 -494 84 -776 218 -924 838
-1718 1685 -2160 277 -145 586 -253 890 -313 226 -44 350 -55 630 -55 321 -1
491 18 771 84 924 218 1718 838 2160 1685 182 348 293 704 350 1120 22 160 26
617 6 765 -80 607 -267 1095 -593 1552 -541 756 -1345 1237 -2279 1363 -110
15 -549 28 -650 19z m68 -2381 c-103 -587 -186 -1068 -184 -1070 2 -3 738 595
763 620 9 9 273 1466 273 1508 0 5 152 9 381 9 l381 0 -5 -22 c-3 -13 -159
-894 -346 -1958 -188 -1064 -343 -1945 -346 -1957 l-5 -23 -375 0 c-346 0
-375 1 -375 17 0 9 68 397 150 861 83 465 149 846 147 848 -2 3 -731 -589
-769 -625 -6 -5 -198 -1064 -198 -1092 0 -5 -150 -9 -381 -9 l-381 0 5 23 c3
12 157 879 342 1927 184 1048 340 1929 346 1958 l10 52 378 0 377 0 -188
-1067z"/>
</g>
</svg>
