<?xml version="1.0" encoding="UTF-8" standalone="no"?>
<!-- Generator: Adobe Illustrator 11.0, SVG Export Plug-In  -->

<svg
   width="236.66406"
   height="236.66406"
   viewBox="-0.7 -0.596 432.75714 370.21021"
   xml:space="preserve"
   id="svg2"
   sodipodi:version="0.32"
   inkscape:version="0.45.1"
   sodipodi:docname="Looped_square_on_white_background.svg"
   inkscape:output_extension="org.inkscape.output.svg.inkscape"
   version="1.0"
   xmlns:inkscape="http://www.inkscape.org/namespaces/inkscape"
   xmlns:sodipodi="http://sodipodi.sourceforge.net/DTD/sodipodi-0.dtd"
   xmlns="http://www.w3.org/2000/svg"
   xmlns:svg="http://www.w3.org/2000/svg"
   xmlns:rdf="http://www.w3.org/1999/02/22-rdf-syntax-ns#"
   xmlns:cc="http://creativecommons.org/ns#"
   xmlns:dc="http://purl.org/dc/elements/1.1/"><metadata
   id="metadata29"><rdf:RDF><cc:Work
       rdf:about=""><dc:format>image/svg+xml</dc:format><dc:type
         rdf:resource="http://purl.org/dc/dcmitype/StillImage" /></cc:Work></rdf:RDF></metadata><sodipodi:namedview
   inkscape:window-height="579"
   inkscape:window-width="813"
   inkscape:pageshadow="2"
   inkscape:pageopacity="0.0"
   guidetolerance="10.0"
   gridtolerance="10.0"
   objecttolerance="10.0"
   borderopacity="1.0"
   bordercolor="#666666"
   pagecolor="#ffffff"
   id="base"
   inkscape:zoom="0.8630137"
   inkscape:cx="256"
   inkscape:cy="158.18021"
   inkscape:window-x="110"
   inkscape:window-y="138"
   inkscape:current-layer="svg2"
   width="280px"
   height="280px"
   inkscape:showpageshadow="2"
   inkscape:pagecheckerboard="0"
   inkscape:deskcolor="#d1d1d1" />
	<defs
   id="defs4" />
	
<g
   transform="matrix(1.8285714,0,0,1.8285714,-126.96203,-124.95784)"
   id="g2202">
		 
		
		
		 
		<path
   id="path2206"
   d="m 118.65697,50.907709 c -27.431856,0 -49.607421,22.176995 -49.607421,49.464841 0,27.4319 22.319565,49.75116 49.607421,49.53516 h 23.18555 v 38.73633 h -23.18555 c -27.431856,0 -49.607421,22.10468 -49.607421,49.39258 0,27.50385 22.175565,49.53515 49.607421,49.53515 27.28785,0 49.46485,-22.0313 49.46485,-49.53515 v -23.11328 h 38.59179 v 23.11328 c 0,27.50385 22.10495,49.53515 49.46485,49.53515 27.43185,0 49.53515,-22.0313 49.53515,-49.53515 0,-27.2879 -22.1033,-49.39258 -49.53515,-49.39258 h -23.18555 v -38.73633 h 23.18555 c 27.43185,0 49.53515,-22.10326 49.53515,-49.53516 0,-27.287846 -22.1033,-49.464841 -49.53515,-49.464841 -27.3599,0 -49.60885,22.176995 -49.46485,49.464841 v 23.32813 h -38.59179 v -23.32813 c 0,-27.287846 -22.177,-49.464841 -49.46485,-49.464841 z m 0.0723,26.279297 c 12.7439,0 23.11328,10.369333 23.11328,23.113284 v 23.32812 h -23.11328 c -12.95995,0 -23.328128,-10.36822 -23.328128,-23.32812 0,-12.743951 10.368178,-23.113284 23.328128,-23.113284 z m 137.37695,0 c 12.95996,0 23.32813,10.369323 23.32813,23.113284 0,12.95992 -10.36817,23.32812 -23.32813,23.32812 h -23.11328 v -23.32812 c 0,-12.743961 10.36932,-23.113284 23.11328,-23.113284 z m -87.98437,72.792974 h 38.66406 v 38.66406 h -38.66406 z m -49.39258,64.94336 h 23.11328 v 23.11328 c 0,12.95996 -10.36932,23.32617 -23.11328,23.32617 -12.95998,0 -23.328128,-10.36621 -23.328128,-23.32617 0,-12.74398 10.368148,-23.11328 23.328128,-23.11328 z m 114.26367,0 h 23.11328 c 12.95997,0 23.32813,10.36931 23.32813,23.11328 0,12.95994 -10.36816,23.32617 -23.32813,23.32617 -12.74397,0 -23.11328,-10.36623 -23.11328,-23.32617 z" />
		 
		
		
		
		
	</g></svg>
