<?xml version="1.0" encoding="UTF-8" standalone="no"?>
<!-- Generator: Adobe Illustrator 28.3.0, SVG Export Plug-In . SVG Version: 6.00 Build 0)  -->

<svg
   version="1.1"
   id="a"
   x="0px"
   y="0px"
   viewBox="0 0 619.09995 85.900003"
   xml:space="preserve"
   width="619.09998"
   height="85.900002"
   xmlns="http://www.w3.org/2000/svg"
   xmlns:svg="http://www.w3.org/2000/svg"><defs
   id="defs23" />
<style
   type="text/css"
   id="style1">
	.st0{fill:#2A5698;}
	.st1{fill:none;stroke:#F88D2A;stroke-width:0.65;stroke-miterlimit:10;}
	.st2{enable-background:new    ;}
	.st3{fill:#F88D2A;}
</style>













<path
   class="st0"
   d="M 0,48.8 V 3.5 h 22.7 v 44.9 c 0,11.7 5.9,17.2 14.9,17.2 9,0 14.9,-5.3 14.9,-16.6 V 3.5 H 75.2 V 48.3 C 75.2,74.4 60.3,85.8 37.4,85.8 14.5,85.8 0,74.1 0,48.8 Z"
   id="path15" />
<path
   class="st0"
   d="m 86,44.1 v -0.2 c 0,-23.5 18.1,-42 42.6,-42 16.5,0 27.1,6.9 34.3,16.9 L 146,31.8 C 141.4,26 136.1,22.3 128.3,22.3 117,22.3 109,31.9 109,43.7 v 0.2 c 0,12.1 8,21.6 19.3,21.6 8.4,0 13.4,-3.9 18.2,-9.8 l 16.9,12 C 155.8,78.2 145.5,85.9 127.6,85.9 104.5,85.9 86,68.2 86,44.1 Z"
   id="path16" />
<path
   class="st0"
   d="m 175.8,3.5 h 22.5 v 80.8 h -22.5 z"
   id="path17" />
<path
   class="st0"
   d="m 247.3,3.5 h 22.4 v 30.2 h 28.7 V 3.5 h 22.4 V 84.3 H 298.4 V 53.6 h -28.7 v 30.7 h -22.4 z"
   id="path18" />
<path
   class="st0"
   d="m 331.4,53.4 v -0.2 c 0,-18.2 13,-32.7 31.5,-32.7 21.6,0 31.5,15.8 31.5,34.2 0,1.4 0,3 -0.1,4.5 h -41.8 c 1.7,6.8 6.7,10.3 13.5,10.3 5.2,0 9.4,-2 13.9,-6.3 l 12.1,10 c -6,7.6 -14.7,12.7 -27.1,12.7 -19.7,-0.1 -33.5,-13.2 -33.5,-32.5 z m 42.4,-5.5 C 373,41 369,36.6 363,36.6 c -6,0 -9.7,4.5 -10.9,11.3 z"
   id="path19" />
<path
   class="st0"
   d="m 400.6,66.4 v -0.2 c 0,-12.9 9.8,-19.6 24.5,-19.6 5.8,0 11.4,1.2 15,2.4 v -1 c 0,-6.5 -4,-10.2 -12.5,-10.2 -6.6,0 -11.7,1.3 -17.2,3.5 l -4.5,-15.5 c 7,-2.9 14.5,-4.8 25.3,-4.8 10.8,0 18.8,2.7 23.8,7.6 4.7,4.6 6.7,11.1 6.7,19.9 V 84.4 H 440 v -6.5 c -4.3,4.7 -10.2,7.8 -18.4,7.8 -11.9,0 -21,-6.9 -21,-19.3 z m 39.7,-4.7 v -2.9 c -2.2,-0.9 -5.3,-1.6 -8.5,-1.6 -6.4,0 -10,3.1 -10,7.7 v 0.2 c 0,4.3 3.2,6.8 7.7,6.8 6.3,0 10.8,-4 10.8,-10.2 z"
   id="path20" />
<path
   class="st0"
   d="m 473.4,0 h 21.9 v 84.2 h -21.9 z"
   id="path21" />
<path
   class="st0"
   d="M 511.3,64.9 V 39.5 h -7.4 V 21.8 h 7.4 V 6 h 21.9 v 15.8 h 14.5 v 17.7 h -14.5 v 21.1 c 0,4.4 2,6.2 6,6.2 2.9,0 5.7,-0.8 8.3,-2.1 v 17.2 c -3.9,2.2 -9.1,3.6 -15.2,3.6 -13.1,0.1 -21,-5.7 -21,-20.6 z"
   id="path22" />
<path
   class="st0"
   d="m 557.3,0 h 21.9 v 30.3 c 4,-5.2 9.8,-9.9 18.7,-9.9 13.3,0 21.2,8.8 21.2,23 V 84.2 H 597.2 V 50.5 c 0,-6.8 -3.6,-10.5 -8.8,-10.5 -5.2,0 -9.2,3.7 -9.2,10.5 v 33.8 h -21.9 z"
   id="path23" />
</svg>
