<?xml version="1.0" encoding="UTF-8"?>
<svg id="a" xmlns="http://www.w3.org/2000/svg" viewBox="0 0 255.39 135.68"><defs><style>.b{fill:#2a5698;stroke-width:0px;}</style></defs><path class="b" d="M33.07,74.99V30.51h22.18v44.02c0,11.43,5.77,16.86,14.6,16.86s14.71-5.2,14.71-16.29V30.51h22.18v43.91c0,25.46-14.6,36.78-37.12,36.78s-36.55-11.43-36.55-36.21"/><path class="b" d="M117.38,70.35v-.23c0-23.09,17.65-41.19,41.65-41.19,16.18,0,26.59,6.79,33.61,16.41l-16.52,12.79c-4.53-5.55-9.73-9.28-17.31-9.28-11.09,0-18.9,9.51-18.9,21.05v.23c0,11.88,7.81,21.16,18.9,21.16,8.26,0,13.13-3.85,17.88-9.62l16.52,11.77c-7.47,10.3-17.54,17.88-34.97,17.88-22.63,0-40.85-17.31-40.85-40.97"/><rect class="b" x="203.29" y="30.51" width="21.95" height="79.21"/></svg>